# xmcd
#
# Track frame offsets:
#	150
#	11367
#	26150
#	41640
#	61172
#	73137
#	84185
#	96096
#	108474
#	122571
#	134789
#	149536
#	170621
#	180376
#	198194
#	210888
#	225763
#	242866
#	256137
#	266891
#	276043
#	294189
#	311677
#	331413
#	342440
#
# Disc length: 4736 seconds
#
# Revision: 0
# Processed by: cddbd v1.5.1PL0 Copyright (c) Steve Scherf et al.
# Submitted via: dBpowerAMP V4.0
#
DISCID=67127e19
DTITLE=John Mayall - Plays John Mayall
DYEAR=1964
DGENRE=Blues
TTITLE0=Crawling Up A Hill
TTITLE1=I Wanna Teach You Everything
TTITLE2=When I´m Gone
TTITLE3=I Need Your Love
TTITLE4=The Hoot Owl
TTITLE5=R&B Time, Night Train, Lucille
TTITLE6=Crocodile Walk
TTITLE7=What´s The Matter With You
TTITLE8=Doreen
TTITLE9=Runaway
TTITLE10=Heartache
TTITLE11=Chicago Line
TTITLE12=I´m Your Withdoctor (Bonus Single 1965)
TTITLE13=Telephone Blues (Bonus Single 1965)
TTITLE14=On Top Of The World (Bonus 1968)
TTITLE15=Lonely Years (Bonus 1966)
TTITLE16=Bernard Jenkins (Bonus 1966)
TTITLE17=Burn Out Your Blind Eyes (Bonus 1967)
TTITLE18=Milkman Strut (Bonus 1967)
TTITLE19=Long Night (Bonus 1967)
TTITLE20=Evil Woman Blues (Bonus 1967)
TTITLE21=Greeny (Bonus 1969)
TTITLE22=All My Life (From J. Mayall and P. Butterfield EP 1967)
TTITLE23=Riding On The L&M (From J. Mayall and P. Butterfield EP 1967)
TTITLE24=Eagle Eye (From J. Mayall and P. Butterfield EP 1967)
EXTD=
EXTT0=
EXTT1=
EXTT2=
EXTT3=
EXTT4=
EXTT5=
EXTT6=
EXTT7=
EXTT8=
EXTT9=
EXTT10=
EXTT11=
EXTT12=
EXTT13=
EXTT14=
EXTT15=
EXTT16=
EXTT17=
EXTT18=
EXTT19=
EXTT20=
EXTT21=
EXTT22=
EXTT23=
EXTT24=
PLAYORDER=
